<?xml version="1.0" standalone="no"?><svg xmlns="http://www.w3.org/2000/svg" viewBox="0 0 1440 320"><path fill="#0099ff" fill-opacity="1" d="M0,32L26.7,53.3C53.3,75,107,117,160,154.7C213.3,192,267,224,320,245.3C373.3,267,427,277,480,240C533.3,203,587,117,640,96C693.3,75,747,117,800,144C853.3,171,907,181,960,176C1013.3,171,1067,149,1120,117.3C1173.3,85,1227,43,1280,48C1333.3,53,1387,107,1413,133.3L1440,160L1440,320L1413.3,320C1386.7,320,1333,320,1280,320C1226.7,320,1173,320,1120,320C1066.7,320,1013,320,960,320C906.7,320,853,320,800,320C746.7,320,693,320,640,320C586.7,320,533,320,480,320C426.7,320,373,320,320,320C266.7,320,213,320,160,320C106.7,320,53,320,27,320L0,320Z"></path></svg>