<?xml version="1.0" standalone="no"?><svg xmlns="http://www.w3.org/2000/svg" viewBox="0 0 1440 320"><path fill="#0099ff" fill-opacity="1" d="M0,96L16,101.3C32,107,64,117,96,122.7C128,128,160,128,192,117.3C224,107,256,85,288,112C320,139,352,213,384,213.3C416,213,448,139,480,122.7C512,107,544,149,576,144C608,139,640,85,672,101.3C704,117,736,203,768,218.7C800,235,832,181,864,154.7C896,128,928,128,960,112C992,96,1024,64,1056,58.7C1088,53,1120,75,1152,69.3C1184,64,1216,32,1248,21.3C1280,11,1312,21,1344,42.7C1376,64,1408,96,1424,112L1440,128L1440,0L1424,0C1408,0,1376,0,1344,0C1312,0,1280,0,1248,0C1216,0,1184,0,1152,0C1120,0,1088,0,1056,0C1024,0,992,0,960,0C928,0,896,0,864,0C832,0,800,0,768,0C736,0,704,0,672,0C640,0,608,0,576,0C544,0,512,0,480,0C448,0,416,0,384,0C352,0,320,0,288,0C256,0,224,0,192,0C160,0,128,0,96,0C64,0,32,0,16,0L0,0Z"></path></svg>